<mxfile host="Electron" modified="2024-06-21T03:56:15.356Z" agent="Mozilla/5.0 (Windows NT 10.0; Win64; x64) AppleWebKit/537.36 (KHTML, like Gecko) draw.io/23.1.5 Chrome/120.0.6099.109 Electron/28.1.0 Safari/537.36" etag="KWER-7o7DNHGrOu6OQDf" version="23.1.5" type="device">
  <diagram name="第 1 页" id="GEH4E44AxMkKlCmFrdxH">
    <mxGraphModel dx="386" dy="321" grid="1" gridSize="10" guides="1" tooltips="1" connect="1" arrows="1" fold="1" page="1" pageScale="1" pageWidth="850" pageHeight="1100" math="1" shadow="0">
      <root>
        <mxCell id="0" />
        <mxCell id="1" parent="0" />
        <mxCell id="Hx0KlTFJoZRqq4p0prFQ-27" value="" style="rounded=1;whiteSpace=wrap;html=1;fillColor=none;dashed=1;arcSize=6;" vertex="1" parent="1">
          <mxGeometry x="293.62" y="122" width="226.38" height="90" as="geometry" />
        </mxCell>
        <mxCell id="Hx0KlTFJoZRqq4p0prFQ-23" style="edgeStyle=orthogonalEdgeStyle;rounded=1;orthogonalLoop=1;jettySize=auto;html=1;entryX=0;entryY=0.5;entryDx=0;entryDy=0;jumpSize=3;curved=0;" edge="1" parent="1" source="Hx0KlTFJoZRqq4p0prFQ-6" target="Hx0KlTFJoZRqq4p0prFQ-12">
          <mxGeometry relative="1" as="geometry" />
        </mxCell>
        <mxCell id="Hx0KlTFJoZRqq4p0prFQ-6" value="&lt;font style=&quot;font-size: 12px;&quot;&gt;$$Token_{CLS}$$&lt;/font&gt;" style="rounded=1;whiteSpace=wrap;html=1;fillColor=#f8cecc;strokeColor=#b85450;" vertex="1" parent="1">
          <mxGeometry x="310" y="127" width="80" height="35" as="geometry" />
        </mxCell>
        <mxCell id="Hx0KlTFJoZRqq4p0prFQ-12" value="$$R_G: [b,D]$$" style="rounded=1;whiteSpace=wrap;html=1;fillColor=#fff2cc;strokeColor=#d6b656;" vertex="1" parent="1">
          <mxGeometry x="385" y="86" width="105" height="22" as="geometry" />
        </mxCell>
        <mxCell id="Hx0KlTFJoZRqq4p0prFQ-24" style="edgeStyle=orthogonalEdgeStyle;rounded=0;orthogonalLoop=1;jettySize=auto;html=1;exitX=0.25;exitY=0;exitDx=0;exitDy=0;entryX=0.5;entryY=1;entryDx=0;entryDy=0;strokeWidth=1;" edge="1" parent="1" source="Hx0KlTFJoZRqq4p0prFQ-17" target="Hx0KlTFJoZRqq4p0prFQ-6">
          <mxGeometry relative="1" as="geometry" />
        </mxCell>
        <mxCell id="Hx0KlTFJoZRqq4p0prFQ-17" value="&lt;font style=&quot;font-size: 16px;&quot; face=&quot;Times New Roman&quot;&gt;Bert Embedding Module&lt;/font&gt;" style="rounded=1;whiteSpace=wrap;html=1;fillColor=#dae8fc;strokeColor=#6c8ebf;" vertex="1" parent="1">
          <mxGeometry x="303.25" y="177" width="206.75" height="30" as="geometry" />
        </mxCell>
        <mxCell id="Hx0KlTFJoZRqq4p0prFQ-20" style="edgeStyle=orthogonalEdgeStyle;rounded=0;orthogonalLoop=1;jettySize=auto;html=1;exitX=0.5;exitY=0;exitDx=0;exitDy=0;entryX=0.5;entryY=1;entryDx=0;entryDy=0;" edge="1" parent="1" source="Hx0KlTFJoZRqq4p0prFQ-21" target="Hx0KlTFJoZRqq4p0prFQ-17">
          <mxGeometry relative="1" as="geometry" />
        </mxCell>
        <mxCell id="Hx0KlTFJoZRqq4p0prFQ-21" value="&lt;font style=&quot;&quot; face=&quot;Times New Roman&quot;&gt;$$G_K^t$$&lt;/font&gt;" style="rounded=1;whiteSpace=wrap;html=1;fillColor=#f5f5f5;strokeColor=#666666;fontColor=#333333;" vertex="1" parent="1">
          <mxGeometry x="375.43" y="225" width="62.75" height="25" as="geometry" />
        </mxCell>
        <mxCell id="Hx0KlTFJoZRqq4p0prFQ-28" value="$$[b,d,D]$$" style="text;html=1;align=center;verticalAlign=middle;whiteSpace=wrap;rounded=0;" vertex="1" parent="1">
          <mxGeometry x="420" y="150" width="60" height="30" as="geometry" />
        </mxCell>
      </root>
    </mxGraphModel>
  </diagram>
</mxfile>
